<svg width="274" height="275" viewBox="0 0 274 275" fill="none" xmlns="http://www.w3.org/2000/svg">
<path d="M231.187 53.7109H42.8125C38.8384 53.7109 35.027 55.2954 32.2169 58.1158C29.4068 60.9361 27.8281 64.7614 27.8281 68.75V240.625C27.8126 243.492 28.6212 246.303 30.1569 248.721C31.6927 251.139 33.8905 253.061 36.4869 254.257C38.4692 255.18 40.6274 255.66 42.8125 255.664C46.3425 255.666 49.7577 254.405 52.4453 252.108L52.5416 252.022L86.9415 221.762C87.3267 221.452 87.8069 221.285 88.3008 221.289H231.187C235.162 221.289 238.973 219.705 241.783 216.884C244.593 214.064 246.172 210.239 246.172 206.25V68.75C246.172 64.7614 244.593 60.9361 241.783 58.1158C238.973 55.2954 235.162 53.7109 231.187 53.7109ZM233.328 206.25C233.328 206.82 233.103 207.366 232.701 207.769C232.3 208.172 231.755 208.398 231.187 208.398H88.3008C84.7756 208.403 81.3647 209.654 78.6679 211.933L78.5716 212.019L44.1504 242.279C43.8371 242.531 43.4595 242.689 43.0609 242.736C42.6622 242.783 42.2584 242.716 41.8957 242.544C41.533 242.371 41.2259 242.1 41.0095 241.761C40.7931 241.421 40.6761 241.028 40.6718 240.625V68.75C40.6718 68.1802 40.8974 67.6337 41.2988 67.2308C41.7003 66.8279 42.2447 66.6016 42.8125 66.6016H231.187C231.755 66.6016 232.3 66.8279 232.701 67.2308C233.103 67.6337 233.328 68.1802 233.328 68.75V206.25Z" fill="#F3DF0F"/>
<path d="M171.919 98.5596H140.88V82.9834C140.88 81.9506 140.471 80.9602 139.743 80.2299C139.016 79.4996 138.029 79.0894 137 79.0894C135.971 79.0894 134.984 79.4996 134.257 80.2299C133.529 80.9602 133.12 81.9506 133.12 82.9834V98.5596H102.081C97.965 98.5596 94.0176 100.201 91.1071 103.122C88.1966 106.043 86.5615 110.005 86.5615 114.136V168.652C86.5615 172.783 88.1966 176.745 91.1071 179.666C94.0176 182.587 97.965 184.229 102.081 184.229H171.919C176.035 184.229 179.982 182.587 182.893 179.666C185.803 176.745 187.438 172.783 187.438 168.652V114.136C187.438 110.005 185.803 106.043 182.893 103.122C179.982 100.201 176.035 98.5596 171.919 98.5596ZM179.679 168.652C179.679 170.718 178.861 172.699 177.406 174.159C175.951 175.62 173.977 176.44 171.919 176.44H102.081C100.023 176.44 98.0493 175.62 96.5941 174.159C95.1388 172.699 94.3213 170.718 94.3213 168.652V114.136C94.3213 112.07 95.1388 110.089 96.5941 108.629C98.0493 107.168 100.023 106.348 102.081 106.348H171.919C173.977 106.348 175.951 107.168 177.406 108.629C178.861 110.089 179.679 112.07 179.679 114.136V168.652ZM154.459 141.394H119.541C115.939 141.394 112.485 142.83 109.938 145.386C107.392 147.942 105.961 151.409 105.961 155.023C105.961 158.638 107.392 162.104 109.938 164.66C112.485 167.216 115.939 168.652 119.541 168.652H154.459C158.061 168.652 161.515 167.216 164.062 164.66C166.608 162.104 168.039 158.638 168.039 155.023C168.039 151.409 166.608 147.942 164.062 145.386C161.515 142.83 158.061 141.394 154.459 141.394ZM140.88 149.182V160.864H133.12V149.182H140.88ZM113.721 155.023C113.721 153.474 114.334 151.988 115.425 150.893C116.517 149.798 117.997 149.182 119.541 149.182H125.36V160.864H119.541C117.997 160.864 116.517 160.249 115.425 159.153C114.334 158.058 113.721 156.572 113.721 155.023ZM154.459 160.864H148.64V149.182H154.459C156.003 149.182 157.483 149.798 158.575 150.893C159.666 151.988 160.279 153.474 160.279 155.023C160.279 156.572 159.666 158.058 158.575 159.153C157.483 160.249 156.003 160.864 154.459 160.864ZM109.841 127.765C109.841 126.61 110.182 125.48 110.822 124.52C111.461 123.559 112.37 122.811 113.433 122.368C114.497 121.926 115.667 121.811 116.796 122.036C117.925 122.261 118.962 122.818 119.776 123.635C120.59 124.452 121.144 125.492 121.369 126.625C121.593 127.758 121.478 128.933 121.037 130C120.597 131.067 119.851 131.98 118.894 132.622C117.937 133.263 116.812 133.606 115.661 133.606C114.117 133.606 112.637 132.991 111.545 131.895C110.454 130.8 109.841 129.314 109.841 127.765ZM152.52 127.765C152.52 126.61 152.861 125.48 153.5 124.52C154.14 123.559 155.049 122.811 156.112 122.368C157.176 121.926 158.346 121.811 159.475 122.036C160.604 122.261 161.641 122.818 162.455 123.635C163.269 124.452 163.823 125.492 164.047 126.625C164.272 127.758 164.157 128.933 163.716 130C163.276 131.067 162.53 131.98 161.573 132.622C160.616 133.263 159.49 133.606 158.339 133.606C156.796 133.606 155.316 132.991 154.224 131.895C153.133 130.8 152.52 129.314 152.52 127.765Z" fill="#F3DF0F"/>
</svg>
