<svg width="264" height="254" viewBox="0 0 264 254" fill="none" xmlns="http://www.w3.org/2000/svg">
<path d="M57 37.625C57 32.6522 58.9754 27.8831 62.4918 24.3667C66.0081 20.8504 70.7772 18.875 75.75 18.875C80.7228 18.875 85.4919 20.8504 89.0082 24.3667C92.5246 27.8831 94.5 32.6522 94.5 37.625C94.5 42.5978 92.5246 47.3669 89.0082 50.8832C85.4919 54.3996 80.7228 56.375 75.75 56.375C70.7772 56.375 66.0081 54.3996 62.4918 50.8832C58.9754 47.3669 57 42.5978 57 37.625ZM75.75 0.125C65.8044 0.125 56.2661 4.07588 49.2335 11.1085C42.2009 18.1411 38.25 27.6794 38.25 37.625C38.25 47.5706 42.2009 57.1089 49.2335 64.1415C56.2661 71.1741 65.8044 75.125 75.75 75.125C85.6956 75.125 95.2339 71.1741 102.267 64.1415C109.299 57.1089 113.25 47.5706 113.25 37.625C113.25 27.6794 109.299 18.1411 102.267 11.1085C95.2339 4.07588 85.6956 0.125 75.75 0.125ZM24.1875 93.875C17.9715 93.875 12.0101 96.3443 7.61469 100.74C3.2193 105.135 0.75 111.096 0.75 117.312V119.656C0.75 122.234 0.749999 136.953 10.6312 151.156C17.7281 161.356 29.2219 170.347 47.1844 174.969C50.8058 168.046 56.49 162.421 63.45 158.872C41.6062 156.519 31.2281 147.931 26.025 140.45C21.8374 134.319 19.5663 127.081 19.5 119.656V117.312C19.5 116.069 19.9939 114.877 20.8729 113.998C21.752 113.119 22.9443 112.625 24.1875 112.625H80.4375C80.4375 106.006 81.6844 99.6875 83.9531 93.875H24.1875ZM253.369 151.156C246.272 161.356 234.778 170.347 216.816 174.969C213.194 168.047 207.51 162.421 200.55 158.872C222.394 156.519 232.772 147.931 237.975 140.45C242.163 134.319 244.434 127.081 244.5 119.656V117.312C244.5 116.069 244.006 114.877 243.127 113.998C242.248 113.119 241.056 112.625 239.812 112.625H183.562C183.562 106.006 182.316 99.6875 180.047 93.875H239.812C246.029 93.875 251.99 96.3443 256.385 100.74C260.781 105.135 263.25 111.096 263.25 117.312V119.656C263.25 122.234 263.25 136.953 253.369 151.156ZM169.5 37.625C169.5 32.6522 171.475 27.8831 174.992 24.3667C178.508 20.8504 183.277 18.875 188.25 18.875C193.223 18.875 197.992 20.8504 201.508 24.3667C205.025 27.8831 207 32.6522 207 37.625C207 42.5978 205.025 47.3669 201.508 50.8832C197.992 54.3996 193.223 56.375 188.25 56.375C183.277 56.375 178.508 54.3996 174.992 50.8832C171.475 47.3669 169.5 42.5978 169.5 37.625ZM188.25 0.125C178.304 0.125 168.766 4.07588 161.734 11.1085C154.701 18.1411 150.75 27.6794 150.75 37.625C150.75 47.5706 154.701 57.1089 161.734 64.1415C168.766 71.1741 178.304 75.125 188.25 75.125C198.196 75.125 207.734 71.1741 214.766 64.1415C221.799 57.1089 225.75 47.5706 225.75 37.625C225.75 27.6794 221.799 18.1411 214.766 11.1085C207.734 4.07588 198.196 0.125 188.25 0.125ZM132 93.875C127.027 93.875 122.258 95.8504 118.742 99.3668C115.225 102.883 113.25 107.652 113.25 112.625C113.25 117.598 115.225 122.367 118.742 125.883C122.258 129.4 127.027 131.375 132 131.375C136.973 131.375 141.742 129.4 145.258 125.883C148.775 122.367 150.75 117.598 150.75 112.625C150.75 107.652 148.775 102.883 145.258 99.3668C141.742 95.8504 136.973 93.875 132 93.875ZM94.5 112.625C94.5 102.679 98.4509 93.1411 105.483 86.1085C112.516 79.0759 122.054 75.125 132 75.125C141.946 75.125 151.484 79.0759 158.516 86.1085C165.549 93.1411 169.5 102.679 169.5 112.625C169.5 122.571 165.549 132.109 158.516 139.141C151.484 146.174 141.946 150.125 132 150.125C122.054 150.125 112.516 146.174 105.483 139.141C98.4509 132.109 94.5 122.571 94.5 112.625ZM57 192.312C57 186.096 59.4693 180.135 63.8647 175.74C68.2601 171.344 74.2215 168.875 80.4375 168.875H183.562C186.64 168.875 189.688 169.481 192.532 170.659C195.375 171.837 197.959 173.563 200.135 175.74C202.312 177.916 204.038 180.5 205.216 183.343C206.394 186.187 207 189.235 207 192.312V194.656C207 197.234 207 211.953 197.119 226.156C186.806 240.978 167.212 253.25 132 253.25C96.7969 253.25 77.1937 240.978 66.8812 226.156C57 211.953 57 197.244 57 194.656V192.312ZM80.4375 187.625C79.1943 187.625 78.002 188.119 77.1229 188.998C76.2439 189.877 75.75 191.069 75.75 192.312V194.656C75.75 196.203 75.7594 206.094 82.275 215.45C88.3688 224.216 101.588 234.5 132 234.5C162.422 234.5 175.631 224.216 181.725 215.45C185.913 209.319 188.184 202.081 188.25 194.656V192.312C188.25 191.069 187.756 189.877 186.877 188.998C185.998 188.119 184.806 187.625 183.562 187.625H80.4375Z" fill="#F3DF0F"/>
</svg>
