<svg width="263" height="263" viewBox="0 0 263 263" fill="none" xmlns="http://www.w3.org/2000/svg">
<path d="M194.667 36.75H242.042C246.23 36.75 250.247 38.4137 253.208 41.3752C256.17 44.3367 257.833 48.3534 257.833 52.5416V226.25C257.833 234.626 254.506 242.66 248.583 248.583C242.66 254.506 234.627 257.833 226.25 257.833M226.25 257.833C217.874 257.833 209.84 254.506 203.917 248.583C197.994 242.66 194.667 234.626 194.667 226.25V20.9583C194.667 16.7701 193.003 12.7534 190.041 9.7919C187.08 6.83039 183.063 5.16663 178.875 5.16663H20.9584C16.7702 5.16663 12.7535 6.83039 9.79202 9.7919C6.83051 12.7534 5.16675 16.7701 5.16675 20.9583V210.458C5.16675 223.023 10.158 235.073 19.0426 243.957C27.9271 252.842 39.9771 257.833 52.5417 257.833H226.25ZM68.3334 68.3333H131.5M68.3334 131.5H131.5M68.3334 194.667H131.5" stroke="#F3DF0F" stroke-width="10" stroke-linecap="round" stroke-linejoin="round"/>
</svg>
