<svg width="346" height="322" viewBox="0 0 346 322" fill="none" xmlns="http://www.w3.org/2000/svg">
<path d="M242.5 223.313C224.588 223.313 207.079 218.104 192.186 208.345C177.293 198.586 165.686 184.715 158.831 168.487C151.977 152.259 150.183 134.402 153.678 117.174C157.172 99.9457 165.797 84.1208 178.463 71.7001C191.128 59.2795 207.265 50.8209 224.832 47.394C242.4 43.9672 260.609 45.726 277.157 52.448C293.705 59.17 307.849 70.5533 317.8 85.1585C327.751 99.7636 333.063 116.935 333.063 134.5C333.063 158.055 323.521 180.644 306.537 197.3C289.554 213.956 266.519 223.313 242.5 223.313ZM242.5 58.375C227.147 58.375 212.139 62.8397 199.374 71.2044C186.609 79.5691 176.659 91.4582 170.784 105.368C164.909 119.278 163.371 134.584 166.367 149.351C169.362 164.118 176.755 177.682 187.611 188.329C198.467 198.975 212.298 206.225 227.356 209.162C242.414 212.1 258.022 210.592 272.206 204.83C286.39 199.069 298.513 189.312 307.043 176.793C315.572 164.274 320.125 149.556 320.125 134.5C320.125 114.31 311.947 94.9477 297.389 80.6715C282.832 66.3953 263.087 58.375 242.5 58.375Z" fill="#F3DF0F"/>
<path d="M272.192 172.562L236.031 137.101V77.4062H248.969V131.836L281.312 163.618L272.192 172.562Z" fill="#F3DF0F"/>
<path d="M124.333 288.675V247.825L134.6 219.158C135.211 217.844 136.099 216.738 137.262 215.84C138.426 214.942 139.861 214.495 141.567 214.5H195.1C196.811 214.5 198.278 214.949 199.5 215.847C200.722 216.746 201.578 217.849 202.067 219.158L212.333 247.825V288.675C212.333 289.989 211.876 291.095 210.962 291.993C210.048 292.891 208.916 293.338 207.567 293.333H202.433C201.089 293.333 199.96 292.884 199.045 291.986C198.131 291.088 197.672 289.984 197.667 288.675V282.583H139V288.675C139 289.989 138.541 291.095 137.621 291.993C136.702 292.891 135.573 293.338 134.233 293.333H129.1C127.756 293.333 126.626 292.884 125.712 291.986C124.798 291.088 124.338 289.984 124.333 288.675ZM139 239.583H197.667L192.533 225.25H144.133L139 239.583ZM146.333 268.25C148.411 268.25 150.154 267.562 151.562 266.186C152.97 264.81 153.672 263.109 153.667 261.083C153.667 259.053 152.963 257.349 151.555 255.973C150.147 254.597 148.406 253.912 146.333 253.917C144.256 253.917 142.513 254.605 141.105 255.981C139.697 257.357 138.995 259.058 139 261.083C139 263.114 139.704 264.817 141.112 266.193C142.52 267.569 144.261 268.255 146.333 268.25ZM190.333 268.25C192.411 268.25 194.154 267.562 195.562 266.186C196.97 264.81 197.672 263.109 197.667 261.083C197.667 259.053 196.963 257.349 195.555 255.973C194.147 254.597 192.406 253.912 190.333 253.917C188.256 253.917 186.513 254.605 185.105 255.981C183.697 257.357 182.995 259.058 183 261.083C183 263.114 183.704 264.817 185.112 266.193C186.52 267.569 188.261 268.255 190.333 268.25ZM80.3334 293.333V286.167L87.6667 279C81.5556 279 76.3612 276.91 72.0834 272.729C67.8056 268.549 65.6667 263.472 65.6667 257.5V200.167C65.6667 192.283 69.2723 186.729 76.4834 183.504C83.6945 180.279 95.9779 178.667 113.333 178.667C131.422 178.667 143.889 180.219 150.733 183.325C157.578 186.431 161 192.044 161 200.167V207.333H146.333V200.167H80.3334V243.167H117V293.333H80.3334ZM87.6667 264.667C89.7445 264.667 91.4874 263.979 92.8954 262.603C94.3034 261.227 95.005 259.526 95.0001 257.5C95.0001 255.469 94.2961 253.766 92.8881 252.39C91.4801 251.014 89.7396 250.329 87.6667 250.333C85.589 250.333 83.8461 251.021 82.4381 252.397C81.0301 253.773 80.3285 255.474 80.3334 257.5C80.3334 259.531 81.0374 261.234 82.4454 262.61C83.8534 263.986 85.5939 264.671 87.6667 264.667ZM135.333 271.833H201.333V250.333H135.333V271.833Z" fill="#F3DF0F"/>
<path d="M91.0001 103.833C107.729 103.833 121.333 90.5278 121.333 74.1667C121.333 57.8055 107.729 44.5 91.0001 44.5C74.2712 44.5 60.6667 57.8055 60.6667 74.1667C60.6667 90.5278 74.2712 103.833 91.0001 103.833ZM91.0001 59.3333C99.3645 59.3333 106.167 65.9861 106.167 74.1667C106.167 82.3473 99.3645 89 91.0001 89C82.6357 89 75.8334 82.3473 75.8334 74.1667C75.8334 65.9861 82.6357 59.3333 91.0001 59.3333Z" fill="#F3DF0F"/>
<path d="M86.6018 161.787C87.8852 162.684 89.423 163.166 91.0001 163.166C92.5772 163.166 94.115 162.684 95.3984 161.787C97.7038 160.193 151.887 121.93 151.667 74.1667C151.667 41.4518 124.45 14.8334 91.0001 14.8334C57.55 14.8334 30.3334 41.4518 30.3334 74.1296C30.1135 121.93 84.2964 160.193 86.6018 161.787ZM91.0001 29.6667C116.093 29.6667 136.5 49.625 136.5 74.2038C136.659 107.119 103.224 136.674 91.0001 146.368C78.7833 136.667 45.3408 107.104 45.5001 74.1667C45.5001 49.625 65.9068 29.6667 91.0001 29.6667Z" fill="#F3DF0F"/>
</svg>
